<svg width="200" height="200" viewBox="0 0 200 200" fill="none" xmlns="http://www.w3.org/2000/svg">
<path d="M175.68 30.6094C174.432 28.9562 172.928 27.4277 171.168 26.2112C167.552 23.5908 163.168 22 158.368 22H41.6322C36.832 22 32.3841 23.5909 28.768 26.2111C27.0721 27.4277 25.5041 28.8939 24.2562 30.6093C21.6321 34.1034 20 38.4079 20 43.1184V156.913C20 161.592 21.6319 165.928 24.3198 169.391C25.5678 171.044 27.0719 172.572 28.8318 173.789C32.4478 176.409 36.8319 178 41.6319 178H158.368C163.168 178 167.616 176.409 171.168 173.789C172.864 172.572 174.432 171.106 175.68 169.391C178.368 165.866 180 161.592 180 156.913V43.1182C180 38.4078 178.304 34.1034 175.68 30.6094ZM77.2801 93.1527C79.84 87.6316 82.7202 82.2038 85.44 76.7762H94.8161C92.5121 81.2369 89.952 85.6041 88.3201 89.8464C92.1281 89.6281 95.5841 89.4409 99.648 89.2226C97.4721 93.4649 95.5521 97.2394 93.6321 101.014C93.376 101.513 93.12 102.043 92.864 102.542C90.848 106.473 90.848 106.504 95.3281 106.598C95.808 106.598 96.2561 106.66 97.12 106.753C95.8721 109.155 94.7521 111.339 93.5681 113.491C93.376 113.834 92.832 114.24 92.48 114.24C89.184 114.24 85.856 114.333 82.56 113.99C80.1921 113.741 79.2641 111.963 80.1921 109.779C81.312 107.065 82.656 104.414 83.9041 101.731C84.3201 100.795 84.768 99.8908 85.3762 98.5181C83.552 98.5181 82.2081 98.5495 80.8641 98.5181C76.992 98.3623 75.6802 96.6465 77.2801 93.1527ZM31.904 122.288C29.92 118.919 28.1282 115.8 26.3041 112.68C26.3041 112.306 29.8881 101.638 29.0881 89.5658H38.944C38.944 89.5658 39.2961 112.181 31.904 122.288ZM54.9121 121.071C55.008 126.717 51.0082 126.717 51.0082 126.717H45.3441L39.3921 119.044H45.6321V76.7761H55.008C55.008 90.6264 54.9762 107.221 54.9121 121.071ZM68.5441 121.789C64.0641 117.952 61.6322 106.504 61.6961 89.5035H70.9441C70.2402 98.456 73.2161 110.403 73.2161 110.403C73.2161 110.403 70.4962 116.268 68.5441 121.789ZM88.8321 125.751C88.5761 126.218 87.7761 126.655 87.2 126.686C82.8481 126.749 78.4639 126.717 73.472 126.717C75.36 123.037 76.928 120.042 78.3042 117.422H93.248C91.5841 120.603 90.2721 123.224 88.8321 125.751ZM127.04 126.749H93.4082C95.0401 123.598 97.9521 117.983 97.9521 117.983H107.552V89.3163H101.568V80.3636H123.232V89.1915H117.312V118.014H127.04V126.749ZM171.52 120.136C171.52 126.749 164.896 126.561 164.896 126.561H156.256L152.64 118.981L162.016 119.013C162.016 119.013 162.112 112.15 162.016 109.779C161.952 107.783 160.832 106.504 158.752 106.473C154.592 106.379 150.4 106.442 145.824 106.442V126.593H136.544V106.566H127.168V97.2394H136.288V89.3473H130.24V80.5195H136.384V76.7762H145.76L145.824 80.5193H153.28C153.28 80.5193 160.16 80.3635 160.192 86.8827C160.224 88.817 160.256 95.1494 160.256 97.2706C168.16 97.2394 171.52 98.7991 171.52 104.164V120.136ZM167.552 89.5967H162.56V84.9492C162.56 83.2647 163.424 81.705 164.896 80.8004C166.56 79.771 168.864 79.1159 171.04 81.1435C171.136 81.2059 171.2 81.2995 171.264 81.393C174.272 84.481 171.904 89.5967 167.552 89.5967ZM145.888 97.2394H152.096V89.316H145.824L145.888 97.2394Z" fill="white"/>
</svg>
