<svg width="60" height="60" viewBox="0 0 60 60" fill="none" xmlns="http://www.w3.org/2000/svg">
<rect width="60" height="60" rx="8" fill="#F4F4F4"/>
<path d="M53 4L48.8093 50.7946L29.9718 56L11.1863 50.8019L7 4H53Z" fill="#264DE4"/>
<path d="M45.2216 47.8148L48.8028 7.82675H30V52.0212L45.2216 47.8148Z" fill="#2965F1"/>
<path d="M16.597 25.1849L17.1131 30.9249H30V25.1849H16.597Z" fill="#EBEBEB"/>
<path d="M30 13.5668H29.9801H15.5599L16.0834 19.3069H30V13.5668Z" fill="#EBEBEB"/>
<path d="M30 46.0644V40.0923L29.9748 40.099L23.5613 38.3729L23.1513 33.7949H20.0348H17.3704L18.1772 42.8076L29.9735 46.0717L30 46.0644Z" fill="#EBEBEB"/>
<path d="M37.0713 30.9248L36.4029 38.3692L29.9801 40.0972V46.069L41.7858 42.8077L41.8724 41.8379L43.2256 26.7262L43.3662 25.1848L44.4058 13.5668H29.9801V19.3069H38.0947L37.5707 25.1848H29.9801V30.9248H37.0713Z" fill="white"/>
</svg>
