<svg width="60" height="60" viewBox="0 0 60 60" fill="none" xmlns="http://www.w3.org/2000/svg">
<rect width="60" height="60" rx="8" fill="#F4F4F4"/>
<path fill-rule="evenodd" clip-rule="evenodd" d="M29.5846 16.4394H52.8461V25.6688H29.5846V16.4394Z" fill="white"/>
<path fill-rule="evenodd" clip-rule="evenodd" d="M8.53846 46.5708C6.48978 46.5708 4.70502 45.4777 3.74686 43.8563C3.25767 44.6806 2.99998 45.6172 3 46.5708C3 49.5693 5.47957 51.9999 8.53846 51.9999H14.0769V46.5708H8.53846Z" fill="#3ECC5F"/>
<path fill-rule="evenodd" clip-rule="evenodd" d="M33.4559 17.8988L52.8461 16.7109V13.9964C52.8461 10.9979 50.3665 8.56731 47.3076 8.56731H22.3846L21.6922 7.39191C21.3843 6.86936 20.6153 6.86936 20.3076 7.39191L19.6153 8.56731L18.923 7.39191C18.6154 6.86936 17.8461 6.86936 17.5384 7.39191L16.8461 8.56731L16.1538 7.39191C15.8461 6.86936 15.0768 6.86936 14.7692 7.39191L14.0769 8.56731C14.0708 8.56731 14.0652 8.56812 14.0589 8.56812L12.9118 7.44403C12.4771 7.01758 11.7344 7.21248 11.5749 7.79529L11.1958 9.1808L9.75797 8.80293C9.16314 8.64685 8.61954 9.17998 8.77904 9.76279L9.16397 11.1725L7.75111 11.5435C7.15628 11.6999 6.95717 12.4282 7.39221 12.8547L8.53923 13.979C8.53923 13.9847 8.5384 13.9904 8.5384 13.9964L7.33932 14.675C6.80624 14.9766 6.80624 15.7307 7.33932 16.0323L8.5384 16.7109L7.33932 17.3896C6.80624 17.6912 6.80624 18.4453 7.33932 18.7468L8.5384 19.4255L7.33932 20.1041C6.80624 20.4057 6.80624 21.1598 7.33932 21.4614L8.5384 22.14L7.33932 22.8187C6.80624 23.1202 6.80624 23.8743 7.33932 24.1759L8.5384 24.8546L7.33932 25.5332C6.80624 25.8348 6.80624 26.5889 7.33932 26.8905L8.5384 27.5691L7.33932 28.2477C6.80624 28.5493 6.80624 29.3034 7.33932 29.605L8.5384 30.2837L7.33932 30.9623C6.80624 31.2639 6.80624 32.018 7.33932 32.3196L8.5384 32.9982L7.33932 33.6768C6.80624 33.9784 6.80624 34.7325 7.33932 35.0341L8.5384 35.7127L7.33932 36.3914C6.80624 36.693 6.80624 37.4471 7.33932 37.7487L8.5384 38.4273L7.33932 39.1059C6.80624 39.4075 6.80624 40.1616 7.33932 40.4632L8.5384 41.1418L7.33932 41.8205C6.80624 42.122 6.80624 42.8761 7.33932 43.1777L8.5384 43.8564L7.33932 44.535C6.80624 44.8366 6.80624 45.5907 7.33932 45.8923L8.5384 46.5709C8.5384 49.5694 11.018 52 14.0769 52H47.3076C50.3665 52 52.8461 49.5694 52.8461 46.5709V24.8546L33.4559 23.6667C32.7075 23.6208 32.005 23.2969 31.4915 22.7611C30.9781 22.2254 30.6923 21.5179 30.6922 20.7828C30.6922 19.2569 31.9024 17.9941 33.4559 17.8988Z" fill="#3ECC5F"/>
<path fill-rule="evenodd" clip-rule="evenodd" d="M41.7692 51.9999H50.0769V41.1418H41.7692V51.9999Z" fill="#3ECC5F"/>
<path fill-rule="evenodd" clip-rule="evenodd" d="M55.6154 45.2136C55.5547 45.2136 55.4968 45.2236 55.4384 45.2309C55.4279 45.1902 55.4179 45.1492 55.4063 45.1085C55.7014 44.9876 55.9447 44.7702 56.0948 44.4933C56.2449 44.2165 56.2926 43.8972 56.2298 43.5898C56.167 43.2824 55.9976 43.0057 55.7503 42.8069C55.503 42.608 55.1931 42.4993 54.8732 42.499C54.5708 42.5001 54.2773 42.5989 54.038 42.7803C54.0074 42.7496 53.9764 42.7192 53.9452 42.689C54.1262 42.4559 54.2245 42.1712 54.2252 41.8782C54.225 41.5655 54.1147 41.2624 53.9128 41.0203C53.711 40.7781 53.4301 40.6117 53.1175 40.5491C52.8049 40.4866 52.4799 40.5318 52.1974 40.6771C51.9149 40.8224 51.6922 41.0588 51.567 41.3464C51.5261 41.335 51.4848 41.3255 51.4438 41.3152C51.4513 41.2579 51.4615 41.2012 51.4615 41.1418C51.4615 40.7818 51.3157 40.4366 51.056 40.182C50.7963 39.9275 50.4441 39.7845 50.0769 39.7845C49.7097 39.7845 49.3575 39.9275 49.0978 40.182C48.8382 40.4366 48.6923 40.7818 48.6923 41.1418C48.6923 41.2012 48.7025 41.2579 48.71 41.3152C48.669 41.3255 48.6278 41.335 48.5868 41.3464C48.4621 41.0582 48.2395 40.8212 47.9568 40.6755C47.6742 40.5298 47.3488 40.4844 47.0359 40.547C46.723 40.6096 46.4418 40.7764 46.24 41.019C46.0382 41.2616 45.9282 41.5652 45.9286 41.8782C45.9286 42.1836 46.0349 42.4621 46.2086 42.689C45.1793 43.675 44.5385 45.0488 44.5385 46.5708C44.5385 49.5693 47.018 51.9999 50.0769 51.9999C52.6631 51.9999 54.8289 50.2599 55.4384 47.9107C55.4968 47.9181 55.5547 47.9281 55.6154 47.9281C55.9826 47.9281 56.3348 47.7851 56.5944 47.5306C56.8541 47.276 57 46.9308 57 46.5708C57 46.2109 56.8541 45.8656 56.5944 45.6111C56.3348 45.3566 55.9826 45.2136 55.6154 45.2136Z" fill="#44D860"/>
<path fill-rule="evenodd" clip-rule="evenodd" d="M44.5385 35.7127H52.8461V30.2836H44.5385V35.7127Z" fill="#3ECC5F"/>
<path fill-rule="evenodd" clip-rule="evenodd" d="M55.6154 33.6769C55.799 33.6769 55.9751 33.6054 56.1049 33.4782C56.2347 33.3509 56.3077 33.1783 56.3077 32.9983C56.3077 32.8183 56.2347 32.6457 56.1049 32.5184C55.9751 32.3912 55.799 32.3197 55.6154 32.3197C55.5852 32.3197 55.5561 32.3248 55.527 32.3283C55.5215 32.308 55.5168 32.2876 55.511 32.2673C55.6583 32.2066 55.7798 32.0979 55.8547 31.9595C55.9296 31.8211 55.9533 31.6615 55.922 31.5079C55.8906 31.3543 55.8059 31.2161 55.6824 31.1166C55.5589 31.0172 55.4041 30.9627 55.2443 30.9624C55.0867 30.9624 54.943 31.0159 54.8267 31.103C54.8115 31.0875 54.7959 31.0723 54.7802 31.0574C54.8671 30.9442 54.9203 30.8047 54.9203 30.6518C54.9202 30.4954 54.8651 30.3438 54.7641 30.2227C54.6632 30.1016 54.5227 30.0184 54.3663 29.9871C54.21 29.9559 54.0474 29.9785 53.9062 30.0512C53.7649 30.1239 53.6536 30.2422 53.5911 30.3861C53.3487 30.3189 53.098 30.2844 52.8461 30.2837C51.317 30.2837 50.0769 31.4993 50.0769 32.9983C50.0769 34.4973 51.317 35.7128 52.8461 35.7128C53.1048 35.7128 53.3537 35.6754 53.5911 35.6105C53.6536 35.7544 53.7649 35.8727 53.9062 35.9454C54.0474 36.0181 54.21 36.0407 54.3663 36.0095C54.5227 35.9782 54.6632 35.895 54.7641 35.7739C54.8651 35.6527 54.9202 35.5011 54.9203 35.3447C54.9203 35.1919 54.8671 35.0524 54.7802 34.9392C54.7959 34.9243 54.8115 34.9091 54.8267 34.8936C54.943 34.9807 55.0867 35.0342 55.2443 35.0342C55.4043 35.0342 55.5593 34.9799 55.6831 34.8804C55.8068 34.781 55.8916 34.6426 55.9231 34.4889C55.9545 34.3351 55.9306 34.1754 55.8555 34.0369C55.7803 33.8984 55.6586 33.7897 55.511 33.7293C55.5168 33.7092 55.5215 33.6886 55.527 33.6682C55.5561 33.6718 55.5852 33.6769 55.6154 33.6769Z" fill="#44D860"/>
<path fill-rule="evenodd" clip-rule="evenodd" d="M19.6154 17.3895C19.4318 17.3895 19.2557 17.318 19.1259 17.1907C18.996 17.0635 18.9231 16.8909 18.9231 16.7109C18.9231 15.5881 17.9915 14.675 16.8462 14.675C15.7008 14.675 14.7693 15.5881 14.7693 16.7109C14.7693 16.8909 14.6963 17.0635 14.5665 17.1907C14.4367 17.318 14.2606 17.3895 14.077 17.3895C13.8933 17.3895 13.7172 17.318 13.5874 17.1907C13.4576 17.0635 13.3846 16.8909 13.3846 16.7109C13.3846 14.8397 14.9374 13.3177 16.8462 13.3177C18.755 13.3177 20.3077 14.8397 20.3077 16.7109C20.3077 16.8909 20.2348 17.0635 20.1049 17.1907C19.9751 17.318 19.799 17.3895 19.6154 17.3895Z" fill="black"/>
<path fill-rule="evenodd" clip-rule="evenodd" d="M30.6923 51.9999H47.3077C50.3666 51.9999 52.8462 49.5693 52.8462 46.5708V27.569H36.2308C33.1719 27.569 30.6923 29.9996 30.6923 32.9981V51.9999Z" fill="#FFFF50"/>
<path fill-rule="evenodd" clip-rule="evenodd" d="M48.6979 35.9843H34.8407C34.7672 35.9843 34.6968 35.9557 34.6449 35.9048C34.5929 35.8539 34.5638 35.7848 34.5638 35.7128C34.5638 35.6408 34.5929 35.5718 34.6449 35.5209C34.6968 35.47 34.7672 35.4414 34.8407 35.4414H48.6979C48.7714 35.4414 48.8418 35.47 48.8937 35.5209C48.9457 35.5718 48.9748 35.6408 48.9748 35.7128C48.9748 35.7848 48.9457 35.8539 48.8937 35.9048C48.8418 35.9557 48.7714 35.9843 48.6979 35.9843ZM48.6979 41.4134H34.8407C34.7672 41.4134 34.6968 41.3848 34.6449 41.3339C34.5929 41.2829 34.5638 41.2139 34.5638 41.1419C34.5638 41.0699 34.5929 41.0009 34.6449 40.95C34.6968 40.899 34.7672 40.8704 34.8407 40.8704H48.6979C48.7714 40.8704 48.8418 40.899 48.8937 40.95C48.9457 41.0009 48.9748 41.0699 48.9748 41.1419C48.9748 41.2139 48.9457 41.2829 48.8937 41.3339C48.8418 41.3848 48.7714 41.4134 48.6979 41.4134ZM48.6979 46.8424H34.8407C34.7672 46.8424 34.6968 46.8138 34.6449 46.7629C34.5929 46.712 34.5638 46.643 34.5638 46.571C34.5638 46.499 34.5929 46.43 34.6449 46.379C34.6968 46.3281 34.7672 46.2995 34.8407 46.2995H48.6979C48.7714 46.2995 48.8418 46.3281 48.8937 46.379C48.9457 46.43 48.9748 46.499 48.9748 46.571C48.9748 46.643 48.9457 46.712 48.8937 46.7629C48.8418 46.8138 48.7714 46.8424 48.6979 46.8424ZM48.6979 33.3202H34.8407C34.7672 33.3202 34.6968 33.2916 34.6449 33.2407C34.5929 33.1898 34.5638 33.1208 34.5638 33.0488C34.5638 32.9768 34.5929 32.9077 34.6449 32.8568C34.6968 32.8059 34.7672 32.7773 34.8407 32.7773H48.6979C48.7714 32.7773 48.8418 32.8059 48.8937 32.8568C48.9457 32.9077 48.9748 32.9768 48.9748 33.0488C48.9748 33.1208 48.9457 33.1898 48.8937 33.2407C48.8418 33.2916 48.7714 33.3202 48.6979 33.3202ZM48.6979 38.6988H34.8407C34.7672 38.6988 34.6968 38.6702 34.6449 38.6193C34.5929 38.5684 34.5638 38.4994 34.5638 38.4274C34.5638 38.3554 34.5929 38.2863 34.6449 38.2354C34.6968 38.1845 34.7672 38.1559 34.8407 38.1559H48.6979C48.7714 38.1559 48.8418 38.1845 48.8937 38.2354C48.9457 38.2863 48.9748 38.3554 48.9748 38.4274C48.9748 38.4994 48.9457 38.5684 48.8937 38.6193C48.8418 38.6702 48.7714 38.6988 48.6979 38.6988ZM48.6979 44.1279H34.8407C34.7672 44.1279 34.6968 44.0993 34.6449 44.0484C34.5929 43.9975 34.5638 43.9284 34.5638 43.8564C34.5638 43.7845 34.5929 43.7154 34.6449 43.6645C34.6968 43.6136 34.7672 43.585 34.8407 43.585H48.6979C48.7714 43.585 48.8418 43.6136 48.8937 43.6645C48.9457 43.7154 48.9748 43.7845 48.9748 43.8564C48.9748 43.9284 48.9457 43.9975 48.8937 44.0484C48.8418 44.0993 48.7714 44.1279 48.6979 44.1279ZM52.8462 19.0485C52.8429 19.0485 52.8401 19.0469 52.8368 19.0471C51.9811 19.0757 51.5763 19.9147 51.219 20.655C50.8463 21.4286 50.558 21.9316 50.0856 21.9164C49.5625 21.898 49.2634 21.3187 48.9466 20.7057C48.5827 20.0016 48.1673 19.203 47.2953 19.2328C46.4518 19.2611 46.0455 19.9913 45.6872 20.6354C45.3059 21.3217 45.0464 21.7389 44.546 21.7196C44.0124 21.7006 43.7288 21.2296 43.4007 20.6846C43.0348 20.0776 42.612 19.3952 41.7568 19.4185C40.9277 19.4465 40.5204 20.0659 40.1609 20.6129C39.7807 21.1911 39.5143 21.5434 39.0075 21.5225C38.4612 21.5035 38.179 21.1126 37.8525 20.6601C37.4859 20.1517 37.0727 19.5762 36.22 19.6042C35.4092 19.6313 35.0019 20.1389 34.6427 20.5863C34.3015 21.0109 34.0351 21.3469 33.4716 21.3257C33.3981 21.3231 33.3267 21.3493 33.2728 21.3983C33.219 21.4474 33.1873 21.5154 33.1847 21.5874C33.182 21.6594 33.2087 21.7295 33.2587 21.7822C33.3088 21.835 33.3782 21.8661 33.4516 21.8686C34.2871 21.8961 34.7103 21.38 35.0777 20.9221C35.4037 20.516 35.685 20.1655 36.2389 20.1471C36.7722 20.1248 37.0223 20.4498 37.4006 20.9737C37.7597 21.4715 38.1674 22.0361 38.9876 22.0652C39.8469 22.0934 40.2604 21.4639 40.6264 20.9069C40.9538 20.409 41.2362 19.9793 41.7757 19.9611C42.2722 19.9429 42.5425 20.3276 42.9235 20.9604C43.2827 21.5567 43.6895 22.2324 44.5261 22.2623C45.3915 22.2916 45.8093 21.551 46.1735 20.8955C46.4889 20.3287 46.7866 19.7934 47.3141 19.7755C47.8107 19.7641 48.0696 20.2084 48.4526 20.9509C48.8104 21.6439 49.216 22.4289 50.0656 22.4591L50.1124 22.4599C50.9609 22.4599 51.3636 21.6252 51.72 20.8871C52.0354 20.2329 52.3339 19.6167 52.8462 19.5914V19.0485Z" fill="black"/>
<path fill-rule="evenodd" clip-rule="evenodd" d="M25.1539 51.9999H36.2308V41.1418H25.1539V51.9999Z" fill="#3ECC5F"/>
<path d="M52.7427 23.8276L31.2399 29.4267C30.9449 29.5035 30.771 29.8022 30.8514 30.0939L32.9893 37.8477C33.0698 38.1394 33.3741 38.3135 33.669 38.2367L55.1718 32.6375C55.4668 32.5607 55.6407 32.262 55.5603 31.9704L53.4223 24.2166C53.3419 23.9249 53.0376 23.7508 52.7427 23.8276Z" fill="#D8D8D8"/>
<path d="M37.737 33.7005L36.9691 33.8999C36.822 33.9381 36.7353 34.0869 36.7755 34.2323L36.9854 34.9914C37.0256 35.1368 37.1774 35.2238 37.3245 35.1856L38.0925 34.9861C38.2396 34.9479 38.3262 34.7991 38.286 34.6537L38.0761 33.8946C38.0359 33.7492 37.8841 33.6623 37.737 33.7005Z" fill="#4A4A4A"/>
<path d="M39.2849 33.2938L38.517 33.4932C38.3699 33.5314 38.2832 33.6802 38.3234 33.8256L38.5333 34.5847C38.5735 34.7301 38.7253 34.817 38.8724 34.7788L39.6404 34.5794C39.7875 34.5412 39.8741 34.3924 39.8339 34.247L39.6241 33.4879C39.5839 33.3425 39.432 33.2556 39.2849 33.2938Z" fill="#4A4A4A"/>
<path d="M40.8329 32.8873L40.0649 33.0867C39.9178 33.1249 39.8312 33.2738 39.8714 33.4192L40.0813 34.1783C40.1215 34.3237 40.2733 34.4106 40.4204 34.3724L41.1883 34.173C41.3354 34.1348 41.4221 33.9859 41.3819 33.8405L41.172 33.0814C41.1318 32.936 40.98 32.8491 40.8329 32.8873Z" fill="#4A4A4A"/>
<path d="M42.3808 32.4807L41.6129 32.6801C41.4658 32.7183 41.3792 32.8672 41.4194 33.0126L41.6292 33.7717C41.6694 33.9171 41.8213 34.004 41.9684 33.9658L42.7363 33.7664C42.8834 33.7282 42.9701 33.5793 42.9299 33.4339L42.72 32.6748C42.6798 32.5294 42.528 32.4425 42.3808 32.4807Z" fill="#4A4A4A"/>
<path d="M43.9288 32.0741L43.1609 32.2735C43.0138 32.3117 42.9271 32.4605 42.9673 32.6059L43.1772 33.365C43.2174 33.5104 43.3693 33.5974 43.5164 33.5591L44.2843 33.3597C44.4314 33.3215 44.5181 33.1727 44.4779 33.0273L44.268 32.2682C44.2278 32.1228 44.0759 32.0359 43.9288 32.0741Z" fill="#4A4A4A"/>
<path d="M45.4767 31.6677L44.7088 31.8671C44.5617 31.9053 44.475 32.0542 44.5152 32.1996L44.7251 32.9587C44.7653 33.1041 44.9172 33.191 45.0643 33.1528L45.8322 32.9534C45.9793 32.9152 46.066 32.7663 46.0258 32.6209L45.8159 31.8618C45.7757 31.7164 45.6238 31.6295 45.4767 31.6677Z" fill="#4A4A4A"/>
<path d="M47.0247 31.261L46.2568 31.4604C46.1097 31.4986 46.023 31.6475 46.0632 31.7929L46.2731 32.5519C46.3133 32.6974 46.4651 32.7843 46.6122 32.7461L47.3802 32.5467C47.5273 32.5085 47.6139 32.3596 47.5737 32.2142L47.3639 31.4551C47.3237 31.3097 47.1718 31.2228 47.0247 31.261Z" fill="#4A4A4A"/>
<path d="M48.5726 30.8544L47.8047 31.0538C47.6576 31.092 47.5709 31.2409 47.6111 31.3863L47.821 32.1454C47.8612 32.2908 48.0131 32.3777 48.1602 32.3395L48.9281 32.1401C49.0752 32.1019 49.1619 31.953 49.1217 31.8076L48.9118 31.0485C48.8716 30.9031 48.7197 30.8162 48.5726 30.8544Z" fill="#4A4A4A"/>
<path d="M50.1206 30.4477L49.3527 30.6471C49.2056 30.6853 49.1189 30.8342 49.1591 30.9796L49.369 31.7387C49.4092 31.8841 49.561 31.971 49.7081 31.9328L50.4761 31.7334C50.6232 31.6952 50.7098 31.5463 50.6696 31.4009L50.4598 30.6419C50.4195 30.4964 50.2677 30.4095 50.1206 30.4477Z" fill="#4A4A4A"/>
<path fill-rule="evenodd" clip-rule="evenodd" d="M32.8587 34.9638L36.144 34.1038C36.2149 34.0852 36.2906 34.0955 36.3545 34.1323C36.4183 34.1692 36.4651 34.2296 36.4845 34.3002L36.6951 35.0682C36.7145 35.1389 36.7049 35.214 36.6684 35.2772C36.632 35.3403 36.5717 35.3861 36.5008 35.4047L33.2154 36.2648C33.1445 36.2833 33.0688 36.2731 33.005 36.2362C32.9411 36.1994 32.8943 36.139 32.875 36.0683L32.6643 35.3C32.6449 35.2294 32.6545 35.1542 32.6909 35.0911C32.7274 35.028 32.7877 34.9821 32.8586 34.9636L32.8587 34.9638ZM50.9442 30.2292L54.2298 29.3691C54.3007 29.3505 54.3764 29.3608 54.4403 29.3977C54.5041 29.4345 54.5509 29.4949 54.5703 29.5656L54.7809 30.3336C54.8003 30.4042 54.7907 30.4794 54.7543 30.5425C54.7178 30.6056 54.6575 30.6515 54.5866 30.67L51.3007 31.5302C51.2298 31.5488 51.1541 31.5385 51.0902 31.5017C51.0264 31.4648 50.9796 31.4044 50.9602 31.3338L50.7495 30.5655C50.7302 30.4949 50.7397 30.4197 50.7762 30.3566C50.8126 30.2935 50.873 30.2476 50.9439 30.229L50.9442 30.2292Z" fill="#4A4A4A"/>
<path fill-rule="evenodd" clip-rule="evenodd" d="M32.0202 31.9145L33.2706 31.5897C33.3414 31.5713 33.4168 31.5815 33.4805 31.6179C33.5442 31.6544 33.5908 31.7141 33.6101 31.784L33.8201 32.5437C33.8395 32.6136 33.8299 32.688 33.7936 32.7504C33.7572 32.8128 33.6971 32.8582 33.6264 32.8765L32.376 33.2013C32.3052 33.2197 32.2297 33.2095 32.1661 33.1731C32.1024 33.1366 32.0558 33.0769 32.0365 33.007L31.8265 32.2473C31.8071 32.1774 31.8167 32.103 31.853 32.0406C31.8894 31.9782 31.9495 31.9328 32.0202 31.9145Z" fill="#4A4A4A"/>
<path d="M34.8194 31.1828L34.0515 31.3822C33.9044 31.4204 33.8177 31.5693 33.858 31.7147L34.0678 32.4738C34.108 32.6192 34.2599 32.7061 34.407 32.6679L35.1749 32.4685C35.322 32.4303 35.4087 32.2815 35.3685 32.136L35.1586 31.377C35.1184 31.2315 34.9666 31.1446 34.8194 31.1828Z" fill="#4A4A4A"/>
<path d="M36.3674 30.7762L35.5994 30.9756C35.4523 31.0138 35.3657 31.1626 35.4059 31.308L35.6157 32.0671C35.6559 32.2125 35.8078 32.2994 35.9549 32.2612L36.7228 32.0618C36.8699 32.0236 36.9566 31.8748 36.9164 31.7294L36.7065 30.9703C36.6663 30.8249 36.5145 30.738 36.3674 30.7762Z" fill="#4A4A4A"/>
<path d="M37.9153 30.3698L37.1473 30.5692C37.0002 30.6074 36.9136 30.7562 36.9538 30.9017L37.1637 31.6607C37.2039 31.8062 37.3557 31.8931 37.5028 31.8549L38.2707 31.6555C38.4178 31.6173 38.5045 31.4684 38.4643 31.323L38.2544 30.5639C38.2142 30.4185 38.0624 30.3316 37.9153 30.3698Z" fill="#4A4A4A"/>
<path d="M39.4633 29.9631L38.6954 30.1625C38.5483 30.2007 38.4616 30.3496 38.5018 30.495L38.7117 31.2541C38.7519 31.3995 38.9037 31.4864 39.0508 31.4482L39.8188 31.2488C39.9659 31.2106 40.0525 31.0617 40.0123 30.9163L39.8025 30.1572C39.7623 30.0118 39.6104 29.9249 39.4633 29.9631Z" fill="#4A4A4A"/>
<path d="M41.0112 29.5565L40.2433 29.7559C40.0962 29.7941 40.0095 29.943 40.0497 30.0884L40.2596 30.8475C40.2998 30.9929 40.4517 31.0798 40.5988 31.0416L41.3667 30.8422C41.5138 30.804 41.6005 30.6551 41.5603 30.5097L41.3504 29.7507C41.3102 29.6052 41.1583 29.5183 41.0112 29.5565Z" fill="#4A4A4A"/>
<path d="M42.5591 29.1498L41.7912 29.3492C41.6441 29.3874 41.5574 29.5363 41.5976 29.6817L41.8075 30.4408C41.8477 30.5862 41.9996 30.6731 42.1467 30.6349L42.9146 30.4355C43.0617 30.3973 43.1484 30.2484 43.1082 30.103L42.8983 29.3439C42.8581 29.1985 42.7062 29.1116 42.5591 29.1498Z" fill="#4A4A4A"/>
<path d="M44.1071 28.7434L43.3392 28.9429C43.1921 28.9811 43.1054 29.1299 43.1456 29.2753L43.3555 30.0344C43.3957 30.1798 43.5475 30.2667 43.6946 30.2285L44.4626 30.0291C44.6097 29.9909 44.6963 29.8421 44.6561 29.6966L44.4463 28.9376C44.4061 28.7922 44.2542 28.7052 44.1071 28.7434Z" fill="#4A4A4A"/>
<path d="M45.6551 28.3368L44.8872 28.5362C44.74 28.5744 44.6534 28.7232 44.6936 28.8686L44.9035 29.6277C44.9437 29.7731 45.0955 29.86 45.2426 29.8218L46.0105 29.6224C46.1577 29.5842 46.2443 29.4354 46.2041 29.29L45.9942 28.5309C45.954 28.3855 45.8022 28.2986 45.6551 28.3368Z" fill="#4A4A4A"/>
<path d="M47.2027 27.9301L46.4348 28.1295C46.2877 28.1677 46.201 28.3166 46.2413 28.462L46.4511 29.2211C46.4913 29.3665 46.6432 29.4534 46.7903 29.4152L47.5582 29.2158C47.7053 29.1776 47.792 29.0287 47.7518 28.8833L47.5419 28.1242C47.5017 27.9788 47.3499 27.8919 47.2027 27.9301Z" fill="#4A4A4A"/>
<path d="M48.7507 27.5237L47.9828 27.7231C47.8357 27.7613 47.749 27.9101 47.7892 28.0556L47.9991 28.8146C48.0393 28.9601 48.1912 29.047 48.3383 29.0088L49.1062 28.8094C49.2533 28.7712 49.34 28.6223 49.2998 28.4769L49.0899 27.7178C49.0497 27.5724 48.8978 27.4855 48.7507 27.5237Z" fill="#4A4A4A"/>
<path d="M50.2987 27.1171L49.5308 27.3165C49.3837 27.3547 49.297 27.5036 49.3372 27.649L49.5471 28.4081C49.5873 28.5535 49.7391 28.6404 49.8862 28.6022L50.6542 28.4028C50.8013 28.3646 50.8879 28.2157 50.8477 28.0703L50.6379 27.3112C50.5976 27.1658 50.4458 27.0789 50.2987 27.1171Z" fill="#4A4A4A"/>
<path d="M51.8466 26.7105L51.0787 26.9099C50.9316 26.9481 50.8449 27.0969 50.8851 27.2423L51.095 28.0014C51.1352 28.1468 51.287 28.2337 51.4341 28.1955L52.2021 27.9961C52.3492 27.9579 52.4358 27.8091 52.3956 27.6637L52.1858 26.9046C52.1456 26.7592 51.9937 26.6723 51.8466 26.7105Z" fill="#4A4A4A"/>
<path d="M53.3946 26.3041L52.6267 26.5035C52.4795 26.5417 52.3929 26.6905 52.4331 26.8359L52.643 27.595C52.6832 27.7404 52.835 27.8273 52.9821 27.7891L53.75 27.5897C53.8972 27.5515 53.9838 27.4027 53.9436 27.2573L53.7337 26.4982C53.6935 26.3528 53.5417 26.2659 53.3946 26.3041Z" fill="#4A4A4A"/>
<path fill-rule="evenodd" clip-rule="evenodd" d="M53.3529 26.1393L52.1022 26.4641C52.0315 26.4825 51.956 26.4723 51.8923 26.4358C51.8287 26.3994 51.782 26.3396 51.7627 26.2697L51.5526 25.5098C51.5333 25.4399 51.5429 25.3656 51.5792 25.3031C51.6155 25.2407 51.6757 25.1953 51.7464 25.177L52.9971 24.8521C53.0678 24.8338 53.1433 24.8439 53.207 24.8804C53.2706 24.9168 53.3172 24.9766 53.3366 25.0465L53.5466 25.8064C53.566 25.8763 53.5564 25.9507 53.5201 26.0131C53.4837 26.0755 53.4236 26.1209 53.3529 26.1393Z" fill="#4A4A4A"/>
<path d="M50.5537 26.8708L51.3216 26.6713C51.4687 26.6331 51.5554 26.4843 51.5152 26.3389L51.3053 25.5798C51.2651 25.4344 51.1132 25.3475 50.9661 25.3857L50.1982 25.5851C50.0511 25.6233 49.9644 25.7721 50.0046 25.9175L50.2145 26.6766C50.2547 26.822 50.4066 26.909 50.5537 26.8708Z" fill="#4A4A4A"/>
<path d="M49.0058 27.2774L49.7737 27.078C49.9208 27.0398 50.0075 26.891 49.9673 26.7456L49.7574 25.9865C49.7172 25.8411 49.5654 25.7542 49.4183 25.7924L48.6503 25.9918C48.5032 26.03 48.4166 26.1788 48.4568 26.3242L48.6667 27.0833C48.7069 27.2287 48.8587 27.3156 49.0058 27.2774Z" fill="#4A4A4A"/>
<path d="M47.4579 27.6838L48.2258 27.4844C48.3729 27.4462 48.4596 27.2974 48.4194 27.152L48.2095 26.3929C48.1693 26.2475 48.0175 26.1606 47.8704 26.1988L47.1024 26.3982C46.9553 26.4364 46.8687 26.5852 46.9089 26.7306L47.1187 27.4897C47.1589 27.6351 47.3108 27.722 47.4579 27.6838Z" fill="#4A4A4A"/>
<path d="M45.9099 28.0905L46.6779 27.8911C46.825 27.8529 46.9116 27.704 46.8714 27.5586L46.6615 26.7995C46.6213 26.6541 46.4695 26.5672 46.3224 26.6054L45.5545 26.8048C45.4073 26.843 45.3207 26.9919 45.3609 27.1373L45.5708 27.8964C45.611 28.0418 45.7628 28.1287 45.9099 28.0905Z" fill="#4A4A4A"/>
<path d="M44.362 28.4971L45.1299 28.2977C45.277 28.2595 45.3636 28.1107 45.3234 27.9653L45.1136 27.2062C45.0734 27.0608 44.9215 26.9738 44.7744 27.012L44.0065 27.2115C43.8594 27.2497 43.7727 27.3985 43.8129 27.5439L44.0228 28.303C44.063 28.4484 44.2148 28.5353 44.362 28.4971Z" fill="#4A4A4A"/>
<path d="M42.814 28.9038L43.5819 28.7044C43.729 28.6662 43.8157 28.5173 43.7755 28.3719L43.5656 27.6128C43.5254 27.4674 43.3735 27.3805 43.2264 27.4187L42.4585 27.6181C42.3114 27.6563 42.2247 27.8052 42.2649 27.9506L42.4748 28.7096C42.515 28.8551 42.6669 28.942 42.814 28.9038Z" fill="#4A4A4A"/>
<path d="M41.2661 29.3102L42.034 29.1108C42.1811 29.0726 42.2678 28.9237 42.2276 28.7783L42.0177 28.0192C41.9775 27.8738 41.8256 27.7869 41.6785 27.8251L40.9106 28.0245C40.7635 28.0627 40.6768 28.2116 40.717 28.357L40.9269 29.116C40.9671 29.2615 41.119 29.3484 41.2661 29.3102Z" fill="#4A4A4A"/>
<path d="M39.7181 29.7168L40.486 29.5174C40.6331 29.4792 40.7198 29.3304 40.6796 29.1849L40.4697 28.4259C40.4295 28.2805 40.2777 28.1935 40.1305 28.2317L39.3626 28.4312C39.2155 28.4694 39.1289 28.6182 39.1691 28.7636L39.3789 29.5227C39.4191 29.6681 39.571 29.755 39.7181 29.7168Z" fill="#4A4A4A"/>
<path d="M38.1701 30.1235L38.938 29.9241C39.0852 29.8859 39.1718 29.737 39.1316 29.5916L38.9217 28.8325C38.8815 28.6871 38.7297 28.6002 38.5826 28.6384L37.8147 28.8378C37.6675 28.876 37.5809 29.0249 37.6211 29.1703L37.831 29.9293C37.8712 30.0748 38.023 30.1617 38.1701 30.1235Z" fill="#4A4A4A"/>
<path d="M36.6222 30.5301L37.3901 30.3307C37.5372 30.2925 37.6239 30.1437 37.5837 29.9982L37.3738 29.2392C37.3336 29.0938 37.1818 29.0068 37.0347 29.045L36.2667 29.2444C36.1196 29.2826 36.033 29.4315 36.0732 29.5769L36.283 30.336C36.3233 30.4814 36.4751 30.5683 36.6222 30.5301Z" fill="#4A4A4A"/>
<path d="M35.0742 30.9365L35.8421 30.7371C35.9892 30.6989 36.0759 30.5501 36.0357 30.4047L35.8258 29.6456C35.7856 29.5002 35.6337 29.4133 35.4866 29.4515L34.7187 29.6509C34.5716 29.6891 34.4849 29.8379 34.5251 29.9833L34.735 30.7424C34.7752 30.8878 34.9271 30.9747 35.0742 30.9365Z" fill="#4A4A4A"/>
<path d="M33.5262 31.3431L34.2941 31.1437C34.4412 31.1055 34.5279 30.9567 34.4877 30.8113L34.2778 30.0522C34.2376 29.9068 34.0858 29.8199 33.9387 29.8581L33.1707 30.0575C33.0236 30.0957 32.937 30.2445 32.9772 30.3899L33.187 31.149C33.2272 31.2944 33.3791 31.3813 33.5262 31.3431Z" fill="#4A4A4A"/>
<path d="M31.9786 31.7495L32.7465 31.5501C32.8936 31.5119 32.9803 31.3631 32.9401 31.2177L32.7302 30.4586C32.69 30.3132 32.5382 30.2263 32.391 30.2645L31.6231 30.4639C31.476 30.5021 31.3894 30.6509 31.4296 30.7963L31.6394 31.5554C31.6796 31.7008 31.8315 31.7877 31.9786 31.7495Z" fill="#4A4A4A"/>
<path d="M50.5537 26.8708L51.3216 26.6713C51.4687 26.6331 51.5554 26.4843 51.5152 26.3389L51.3053 25.5798C51.2651 25.4344 51.1132 25.3475 50.9661 25.3857L50.1982 25.5851C50.0511 25.6233 49.9644 25.7721 50.0046 25.9175L50.2145 26.6766C50.2547 26.822 50.4066 26.909 50.5537 26.8708Z" fill="#4A4A4A"/>
<path d="M49.0058 27.2774L49.7737 27.078C49.9208 27.0398 50.0075 26.891 49.9673 26.7456L49.7574 25.9865C49.7172 25.8411 49.5654 25.7542 49.4183 25.7924L48.6503 25.9918C48.5032 26.03 48.4166 26.1788 48.4568 26.3242L48.6667 27.0833C48.7069 27.2287 48.8587 27.3156 49.0058 27.2774Z" fill="#4A4A4A"/>
<path d="M47.4579 27.6838L48.2258 27.4844C48.3729 27.4462 48.4596 27.2974 48.4194 27.152L48.2095 26.3929C48.1693 26.2475 48.0175 26.1606 47.8704 26.1988L47.1024 26.3982C46.9553 26.4364 46.8687 26.5852 46.9089 26.7306L47.1187 27.4897C47.1589 27.6351 47.3108 27.722 47.4579 27.6838Z" fill="#4A4A4A"/>
<path d="M45.9099 28.0905L46.6779 27.8911C46.825 27.8529 46.9116 27.704 46.8714 27.5586L46.6615 26.7995C46.6213 26.6541 46.4695 26.5672 46.3224 26.6054L45.5545 26.8048C45.4073 26.843 45.3207 26.9919 45.3609 27.1373L45.5708 27.8964C45.611 28.0418 45.7628 28.1287 45.9099 28.0905Z" fill="#4A4A4A"/>
<path d="M44.362 28.4971L45.1299 28.2977C45.277 28.2595 45.3636 28.1107 45.3234 27.9653L45.1136 27.2062C45.0734 27.0608 44.9215 26.9738 44.7744 27.012L44.0065 27.2115C43.8594 27.2497 43.7727 27.3985 43.8129 27.5439L44.0228 28.303C44.063 28.4484 44.2148 28.5353 44.362 28.4971Z" fill="#4A4A4A"/>
<path d="M42.814 28.9038L43.5819 28.7044C43.729 28.6662 43.8157 28.5173 43.7755 28.3719L43.5656 27.6128C43.5254 27.4674 43.3735 27.3805 43.2264 27.4187L42.4585 27.6181C42.3114 27.6563 42.2247 27.8052 42.2649 27.9506L42.4748 28.7096C42.515 28.8551 42.6669 28.942 42.814 28.9038Z" fill="#4A4A4A"/>
<path d="M41.2661 29.3102L42.034 29.1108C42.1811 29.0726 42.2678 28.9237 42.2276 28.7783L42.0177 28.0192C41.9775 27.8738 41.8256 27.7869 41.6785 27.8251L40.9106 28.0245C40.7635 28.0627 40.6768 28.2116 40.717 28.357L40.9269 29.116C40.9671 29.2615 41.119 29.3484 41.2661 29.3102Z" fill="#4A4A4A"/>
<path d="M39.7181 29.7168L40.486 29.5174C40.6331 29.4792 40.7198 29.3304 40.6796 29.1849L40.4697 28.4259C40.4295 28.2805 40.2777 28.1935 40.1305 28.2317L39.3626 28.4312C39.2155 28.4694 39.1289 28.6182 39.1691 28.7636L39.3789 29.5227C39.4191 29.6681 39.571 29.755 39.7181 29.7168Z" fill="#4A4A4A"/>
<path d="M38.1701 30.1235L38.938 29.9241C39.0852 29.8859 39.1718 29.737 39.1316 29.5916L38.9217 28.8325C38.8815 28.6871 38.7297 28.6002 38.5826 28.6384L37.8147 28.8378C37.6675 28.876 37.5809 29.0249 37.6211 29.1703L37.831 29.9293C37.8712 30.0748 38.023 30.1617 38.1701 30.1235Z" fill="#4A4A4A"/>
<path d="M36.6222 30.5301L37.3901 30.3307C37.5372 30.2925 37.6239 30.1437 37.5837 29.9982L37.3738 29.2392C37.3336 29.0938 37.1818 29.0068 37.0347 29.045L36.2667 29.2444C36.1196 29.2826 36.033 29.4315 36.0732 29.5769L36.283 30.336C36.3233 30.4814 36.4751 30.5683 36.6222 30.5301Z" fill="#4A4A4A"/>
<path d="M35.0742 30.9365L35.8421 30.7371C35.9892 30.6989 36.0759 30.5501 36.0357 30.4047L35.8258 29.6456C35.7856 29.5002 35.6337 29.4133 35.4866 29.4515L34.7187 29.6509C34.5716 29.6891 34.4849 29.8379 34.5251 29.9833L34.735 30.7424C34.7752 30.8878 34.9271 30.9747 35.0742 30.9365Z" fill="#4A4A4A"/>
<path d="M33.5262 31.3431L34.2941 31.1437C34.4412 31.1055 34.5279 30.9567 34.4877 30.8113L34.2778 30.0522C34.2376 29.9068 34.0858 29.8199 33.9387 29.8581L33.1707 30.0575C33.0236 30.0957 32.937 30.2445 32.9772 30.3899L33.187 31.149C33.2272 31.2944 33.3791 31.3813 33.5262 31.3431Z" fill="#4A4A4A"/>
<path d="M31.9786 31.7495L32.7465 31.5501C32.8936 31.5119 32.9803 31.3631 32.9401 31.2177L32.7302 30.4586C32.69 30.3132 32.5382 30.2263 32.391 30.2645L31.6231 30.4639C31.476 30.5021 31.3894 30.6509 31.4296 30.7963L31.6394 31.5554C31.6796 31.7008 31.8315 31.7877 31.9786 31.7495Z" fill="#4A4A4A"/>
<path fill-rule="evenodd" clip-rule="evenodd" d="M32.4351 33.4299L34.2173 32.9669C34.288 32.9485 34.3636 32.9587 34.4273 32.9952C34.491 33.0316 34.5376 33.0915 34.557 33.1614L34.7672 33.9222C34.7865 33.9922 34.777 34.0666 34.7406 34.1291C34.7042 34.1916 34.6441 34.237 34.5733 34.2554L32.7912 34.7184C32.7204 34.7368 32.6449 34.7267 32.5812 34.6902C32.5175 34.6537 32.4708 34.5939 32.4515 34.5239L32.2413 33.7634C32.222 33.6934 32.2315 33.619 32.2679 33.5565C32.3043 33.494 32.3644 33.4486 32.4352 33.4302L32.4351 33.4299Z" fill="#4A4A4A"/>
<path d="M35.8145 32.5472L35.0468 32.7464C34.8997 32.7846 34.8131 32.9334 34.8533 33.0789L35.0634 33.8381C35.1036 33.9836 35.2554 34.0705 35.4025 34.0324L36.1703 33.8331C36.3173 33.7949 36.404 33.6461 36.3637 33.5006L36.1537 32.7414C36.1134 32.596 35.9616 32.509 35.8145 32.5472Z" fill="#4A4A4A"/>
<path d="M37.3624 32.1404L36.5947 32.3397C36.4476 32.3778 36.361 32.5267 36.4012 32.6721L36.6113 33.4314C36.6515 33.5768 36.8034 33.6638 36.9504 33.6256L37.7182 33.4264C37.8653 33.3882 37.9519 33.2393 37.9116 33.0939L37.7016 32.3347C37.6614 32.1892 37.5095 32.1023 37.3624 32.1404Z" fill="#4A4A4A"/>
<path d="M38.9103 31.734L38.1426 31.9333C37.9955 31.9714 37.9089 32.1203 37.9491 32.2657L38.1592 33.025C38.1994 33.1704 38.3513 33.2574 38.4983 33.2192L39.2661 33.02C39.4132 32.9818 39.4998 32.8329 39.4595 32.6875L39.2495 31.9283C39.2093 31.7828 39.0574 31.6959 38.9103 31.734Z" fill="#4A4A4A"/>
<path d="M40.4583 31.3273L39.6906 31.5266C39.5435 31.5647 39.4569 31.7136 39.4971 31.859L39.7072 32.6183C39.7474 32.7637 39.8992 32.8507 40.0463 32.8125L40.8141 32.6133C40.9611 32.5751 41.0478 32.4262 41.0075 32.2808L40.7975 31.5216C40.7572 31.3761 40.6054 31.2891 40.4583 31.3273Z" fill="#4A4A4A"/>
<path d="M42.0063 30.9208L41.2385 31.12C41.0915 31.1582 41.0048 31.307 41.0451 31.4525L41.2551 32.2117C41.2954 32.3572 41.4472 32.4441 41.5943 32.4059L42.362 32.2067C42.5091 32.1685 42.5957 32.0197 42.5555 31.8742L42.3454 31.115C42.3052 30.9696 42.1534 30.8826 42.0063 30.9208Z" fill="#4A4A4A"/>
<path d="M43.5542 30.5141L42.7864 30.7133C42.6394 30.7515 42.5528 30.9003 42.593 31.0458L42.803 31.805C42.8433 31.9505 42.9951 32.0374 43.1422 31.9993L43.91 31.8C44.057 31.7619 44.1436 31.613 44.1034 31.4676L43.8934 30.7083C43.8531 30.5629 43.7013 30.4759 43.5542 30.5141Z" fill="#4A4A4A"/>
<path d="M45.1022 30.1077L44.3344 30.307C44.1873 30.3451 44.1007 30.494 44.141 30.6394L44.351 31.3987C44.3913 31.5441 44.5431 31.6311 44.6902 31.5929L45.4579 31.3936C45.605 31.3555 45.6916 31.2066 45.6514 31.0612L45.4413 30.3019C45.4011 30.1565 45.2492 30.0695 45.1022 30.1077Z" fill="#4A4A4A"/>
<path d="M46.6498 29.7011L45.8821 29.9003C45.735 29.9385 45.6484 30.0873 45.6886 30.2328L45.8987 30.992C45.9389 31.1375 46.0908 31.2244 46.2378 31.1863L47.0056 30.987C47.1527 30.9488 47.2393 30.8 47.199 30.6545L46.989 29.8953C46.9488 29.7499 46.7969 29.6629 46.6498 29.7011Z" fill="#4A4A4A"/>
<path d="M48.1978 29.2944L47.4301 29.4936C47.283 29.5318 47.1964 29.6807 47.2366 29.8261L47.4467 30.5853C47.4869 30.7308 47.6387 30.8177 47.7858 30.7796L48.5536 30.5803C48.7006 30.5422 48.7873 30.3933 48.747 30.2479L48.537 29.4886C48.4967 29.3432 48.3449 29.2562 48.1978 29.2944Z" fill="#4A4A4A"/>
<path d="M49.7457 28.888L48.9779 29.0873C48.8308 29.1254 48.7442 29.2743 48.7845 29.4197L48.9945 30.179C49.0347 30.3244 49.1866 30.4114 49.3337 30.3732L50.1014 30.174C50.2485 30.1358 50.3351 29.9869 50.2949 29.8415L50.0848 29.0823C50.0446 28.9368 49.8927 28.8498 49.7457 28.888Z" fill="#4A4A4A"/>
<path d="M51.2936 28.4814L50.5258 28.6806C50.3787 28.7188 50.2921 28.8676 50.3324 29.0131L50.5424 29.7723C50.5827 29.9178 50.7345 30.0047 50.8816 29.9666L51.6493 29.7673C51.7964 29.7291 51.883 29.5803 51.8428 29.4348L51.6327 28.6756C51.5925 28.5302 51.4407 28.4432 51.2936 28.4814Z" fill="#4A4A4A"/>
<path fill-rule="evenodd" clip-rule="evenodd" d="M52.1229 28.259L53.8083 27.8211C53.8791 27.8027 53.9546 27.8129 54.0183 27.8493C54.082 27.8858 54.1287 27.9456 54.148 28.0156L54.3582 28.7762C54.3775 28.8462 54.368 28.9206 54.3316 28.9831C54.2953 29.0455 54.2351 29.091 54.1643 29.1093L52.4787 29.5473C52.4079 29.5657 52.3324 29.5555 52.2687 29.519C52.205 29.4825 52.1583 29.4227 52.139 29.3528L51.9289 28.5924C51.9095 28.5225 51.9191 28.448 51.9555 28.3856C51.9918 28.3231 52.052 28.2777 52.1227 28.2593L52.1229 28.259Z" fill="#4A4A4A"/>
<path d="M34.0582 36.3633L33.2902 36.5627C33.1431 36.6009 33.0565 36.7498 33.0967 36.8952L33.3065 37.6543C33.3467 37.7997 33.4986 37.8866 33.6457 37.8484L34.4136 37.649C34.5607 37.6108 34.6474 37.4619 34.6072 37.3165L34.3973 36.5574C34.3571 36.412 34.2053 36.3251 34.0582 36.3633Z" fill="#4A4A4A"/>
<path d="M35.6061 35.9566L34.8381 36.156C34.691 36.1942 34.6044 36.3431 34.6446 36.4885L34.8544 37.2476C34.8947 37.393 35.0465 37.4799 35.1936 37.4417L35.9615 37.2423C36.1086 37.2041 36.1953 37.0552 36.1551 36.9098L35.9452 36.1507C35.905 36.0053 35.7532 35.9184 35.6061 35.9566Z" fill="#4A4A4A"/>
<path d="M37.154 35.5502L36.3861 35.7496C36.239 35.7878 36.1523 35.9367 36.1925 36.0821L36.4024 36.8412C36.4426 36.9866 36.5945 37.0735 36.7416 37.0353L37.5095 36.8359C37.6566 36.7977 37.7433 36.6488 37.7031 36.5034L37.4932 35.7443C37.453 35.5989 37.3011 35.512 37.154 35.5502Z" fill="#4A4A4A"/>
<path d="M38.702 35.1435L37.934 35.3429C37.7869 35.3811 37.7003 35.53 37.7405 35.6754L37.9503 36.4345C37.9905 36.5799 38.1424 36.6668 38.2895 36.6286L39.0574 36.4292C39.2045 36.391 39.2912 36.2421 39.251 36.0967L39.0411 35.3376C39.0009 35.1922 38.8491 35.1053 38.702 35.1435Z" fill="#4A4A4A"/>
<path fill-rule="evenodd" clip-rule="evenodd" d="M39.4827 34.9241L46.9244 32.9811C46.9953 32.9626 47.071 32.9728 47.1348 33.0096C47.1986 33.0463 47.2454 33.1065 47.2647 33.177L47.4754 33.9432C47.4948 34.0136 47.4852 34.0886 47.4488 34.1515C47.4124 34.2144 47.3521 34.2601 47.2812 34.2786L39.8395 36.2216C39.7686 36.2401 39.6929 36.2299 39.6291 36.1932C39.5653 36.1564 39.5185 36.0962 39.4991 36.0258L39.2884 35.2596C39.2691 35.1891 39.2787 35.1142 39.3151 35.0513C39.3515 34.9884 39.4118 34.9426 39.4827 34.9241ZM47.7003 32.7785L48.6645 32.5268C48.7354 32.5082 48.8111 32.5185 48.8749 32.5552C48.9387 32.5919 48.9855 32.6522 49.0049 32.7226L49.2155 33.4888C49.2349 33.5593 49.2253 33.6342 49.1889 33.6971C49.1525 33.76 49.0922 33.8058 49.0213 33.8243L48.0571 34.076C47.9863 34.0945 47.9106 34.0843 47.8467 34.0476C47.7829 34.0108 47.7362 33.9506 47.7168 33.8801L47.5061 33.114C47.4867 33.0435 47.4963 32.9686 47.5327 32.9057C47.5692 32.8427 47.6295 32.797 47.7003 32.7785Z" fill="#4A4A4A"/>
<path d="M50.2146 32.1196L49.4467 32.319C49.2996 32.3572 49.213 32.5061 49.2532 32.6515L49.463 33.4106C49.5032 33.556 49.6551 33.6429 49.8022 33.6047L50.5701 33.4053C50.7172 33.3671 50.8039 33.2183 50.7637 33.0728L50.5538 32.3138C50.5136 32.1683 50.3618 32.0814 50.2146 32.1196Z" fill="#4A4A4A"/>
<path d="M51.7626 31.713L50.9946 31.9125C50.8475 31.9507 50.7609 32.0995 50.8011 32.2449L51.0109 33.004C51.0511 33.1494 51.203 33.2363 51.3501 33.1981L52.118 32.9987C52.2651 32.9605 52.3518 32.8117 52.3116 32.6663L52.1017 31.9072C52.0615 31.7618 51.9097 31.6748 51.7626 31.713Z" fill="#4A4A4A"/>
<path d="M54.6648 30.9509L53.8969 31.1503C53.7498 31.1885 53.6631 31.3373 53.7034 31.4827L53.9132 32.2418C53.9534 32.3872 54.1053 32.4742 54.2524 32.436L55.0203 32.2365C55.1674 32.1983 55.2541 32.0495 55.2139 31.9041L55.004 31.145C54.9638 30.9996 54.8119 30.9127 54.6648 30.9509Z" fill="#4A4A4A"/>
<path d="M52.3309 32.1513L52.2521 31.8659C52.2327 31.7958 52.2423 31.7213 52.2787 31.6588C52.3151 31.5962 52.3753 31.5507 52.4461 31.5323L53.2157 31.3322C53.2864 31.3138 53.362 31.324 53.4258 31.3605C53.4895 31.397 53.5362 31.4569 53.5555 31.527L53.6343 31.8123L52.3309 32.1513Z" fill="#4A4A4A"/>
<path d="M53.6838 31.9977L53.7626 32.283C53.7819 32.3531 53.7724 32.4276 53.736 32.4902C53.6996 32.5527 53.6394 32.5982 53.5686 32.6166L52.799 32.8167C52.7282 32.8352 52.6526 32.825 52.5889 32.7884C52.5251 32.7519 52.4785 32.692 52.4591 32.6219L52.3803 32.3366L53.6838 31.9977Z" fill="#4A4A4A"/>
<path d="M52.7288 24.1423L31.544 29.6986C31.3838 29.7406 31.2893 29.9041 31.333 30.0637C31.3766 30.2233 31.542 30.3186 31.7023 30.2766L52.887 24.7203C53.0473 24.6783 53.1418 24.5148 53.0981 24.3552C53.0544 24.1956 52.8891 24.1003 52.7288 24.1423Z" fill="#4A4A4A"/>
<path opacity="0.136" d="M32.8379 29.4687L32.0053 29.6856C31.8986 29.7134 31.8357 29.8215 31.8648 29.927L31.8649 29.9273C31.8939 30.0328 32.004 30.0958 32.1106 30.068L32.9433 29.8511C33.0499 29.8233 33.1128 29.7152 33.0837 29.6097L33.0837 29.6094C33.0546 29.5039 32.9445 29.4409 32.8379 29.4687Z" fill="#D8D8D8"/>
<path opacity="0.136" d="M34.5081 29.03L33.6754 29.2469C33.5688 29.2747 33.5059 29.3828 33.535 29.4883L33.535 29.4886C33.5641 29.5941 33.6741 29.6571 33.7808 29.6293L34.6134 29.4124C34.7201 29.3846 34.783 29.2765 34.7539 29.171L34.7538 29.1707C34.7248 29.0652 34.6147 29.0022 34.5081 29.03Z" fill="#D8D8D8"/>
<path opacity="0.136" d="M35.7931 28.6925L34.9605 28.9094C34.8538 28.9372 34.7909 29.0453 34.82 29.1508L34.8201 29.1511C34.8491 29.2566 34.9592 29.3196 35.0658 29.2918L35.8985 29.0749C36.0051 29.0471 36.068 28.939 36.0389 28.8335L36.0389 28.8332C36.0098 28.7277 35.8997 28.6647 35.7931 28.6925Z" fill="#D8D8D8"/>
<path opacity="0.136" d="M37.0778 28.355L36.2452 28.572C36.1385 28.5998 36.0756 28.7078 36.1047 28.8134L36.1048 28.8136C36.1339 28.9191 36.2439 28.9822 36.3506 28.9544L37.1832 28.7374C37.2899 28.7096 37.3527 28.6016 37.3237 28.496L37.3236 28.4958C37.2945 28.3902 37.1845 28.3272 37.0778 28.355Z" fill="#D8D8D8"/>
<path opacity="0.136" d="M38.3628 28.0175L37.5302 28.2344C37.4236 28.2622 37.3607 28.3703 37.3897 28.4758L37.3898 28.4761C37.4189 28.5816 37.5289 28.6446 37.6356 28.6168L38.4682 28.3999C38.5749 28.3721 38.6378 28.264 38.6087 28.1585L38.6086 28.1582C38.5796 28.0527 38.4695 27.9897 38.3628 28.0175Z" fill="#D8D8D8"/>
<path opacity="0.136" d="M39.9688 27.5958L39.1362 27.8127C39.0295 27.8405 38.9666 27.9486 38.9957 28.0541L38.9958 28.0544C39.0249 28.1599 39.1349 28.2229 39.2416 28.1952L40.0742 27.9782C40.1808 27.9504 40.2437 27.8423 40.2147 27.7368L40.2146 27.7366C40.1855 27.631 40.0755 27.568 39.9688 27.5958Z" fill="#D8D8D8"/>
<path opacity="0.136" d="M41.2535 27.2583L40.4209 27.4753C40.3142 27.5031 40.2513 27.6112 40.2804 27.7167L40.2804 27.7169C40.3095 27.8225 40.4196 27.8855 40.5262 27.8577L41.3588 27.6407C41.4655 27.613 41.5284 27.5049 41.4993 27.3994L41.4993 27.3991C41.4702 27.2936 41.3601 27.2305 41.2535 27.2583Z" fill="#D8D8D8"/>
<path opacity="0.136" d="M42.5386 26.9206L41.7059 27.1375C41.5993 27.1653 41.5364 27.2734 41.5655 27.3789L41.5655 27.3792C41.5946 27.4847 41.7047 27.5477 41.8113 27.52L42.6439 27.303C42.7506 27.2752 42.8135 27.1671 42.7844 27.0616L42.7843 27.0614C42.7553 26.9558 42.6452 26.8928 42.5386 26.9206Z" fill="#D8D8D8"/>
<path opacity="0.136" d="M43.8233 26.5831L42.9907 26.8001C42.884 26.8279 42.8211 26.9359 42.8502 27.0415L42.8503 27.0417C42.8793 27.1473 42.9894 27.2103 43.096 27.1825L43.9287 26.9655C44.0353 26.9378 44.0982 26.8297 44.0692 26.7242L44.0691 26.7239C44.04 26.6184 43.93 26.5553 43.8233 26.5831Z" fill="#D8D8D8"/>
<path opacity="0.136" d="M45.4296 26.1614L44.5969 26.3783C44.4903 26.4061 44.4274 26.5142 44.4565 26.6197L44.4565 26.62C44.4856 26.7255 44.5956 26.7885 44.7023 26.7607L45.5349 26.5438C45.6416 26.516 45.7045 26.4079 45.6754 26.3024L45.6753 26.3021C45.6463 26.1966 45.5362 26.1336 45.4296 26.1614Z" fill="#D8D8D8"/>
<path opacity="0.136" d="M46.7143 25.8239L45.8817 26.0409C45.775 26.0687 45.7121 26.1767 45.7412 26.2823L45.7413 26.2825C45.7703 26.388 45.8804 26.4511 45.987 26.4233L46.8197 26.2063C46.9263 26.1785 46.9892 26.0705 46.9601 25.9649L46.9601 25.9647C46.931 25.8591 46.821 25.7961 46.7143 25.8239Z" fill="#D8D8D8"/>
<path opacity="0.136" d="M47.9993 25.4864L47.1667 25.7033C47.06 25.7311 46.9971 25.8392 47.0262 25.9447L47.0263 25.945C47.0554 26.0505 47.1654 26.1135 47.2721 26.0858L48.1047 25.8688C48.2114 25.841 48.2743 25.7329 48.2452 25.6274L48.2451 25.6271C48.216 25.5216 48.106 25.4586 47.9993 25.4864Z" fill="#D8D8D8"/>
<path opacity="0.136" d="M49.6053 25.0647L48.7727 25.2816C48.666 25.3094 48.6031 25.4175 48.6322 25.523L48.6323 25.5233C48.6613 25.6288 48.7714 25.6918 48.878 25.664L49.7107 25.4471C49.8173 25.4193 49.8802 25.3112 49.8511 25.2057L49.8511 25.2054C49.822 25.0999 49.7119 25.0369 49.6053 25.0647Z" fill="#D8D8D8"/>
<path opacity="0.136" d="M50.8901 24.7272L50.0574 24.9442C49.9508 24.9719 49.8879 25.08 49.917 25.1855L49.917 25.1858C49.9461 25.2913 50.0562 25.3544 50.1628 25.3266L50.9954 25.1096C51.1021 25.0818 51.165 24.9738 51.1359 24.8682L51.1358 24.868C51.1068 24.7624 50.9967 24.6994 50.8901 24.7272Z" fill="#D8D8D8"/>
<path opacity="0.136" d="M52.175 24.3895L51.3424 24.6064C51.2358 24.6342 51.1729 24.7423 51.2019 24.8478L51.202 24.8481C51.2311 24.9536 51.3411 25.0166 51.4478 24.9889L52.2804 24.7719C52.3871 24.7441 52.45 24.636 52.4209 24.5305L52.4208 24.5303C52.3917 24.4247 52.2817 24.3617 52.175 24.3895Z" fill="#D8D8D8"/>
<path fill-rule="evenodd" clip-rule="evenodd" d="M41.7692 45.2136C41.7086 45.2136 41.6507 45.2236 41.5923 45.2309C41.5818 45.1902 41.5718 45.1492 41.5602 45.1085C41.8553 44.9876 42.0985 44.7702 42.2487 44.4933C42.3988 44.2165 42.4465 43.8972 42.3837 43.5898C42.3209 43.2824 42.1515 43.0057 41.9041 42.8069C41.6568 42.608 41.3469 42.4993 41.0271 42.499C40.7247 42.5001 40.4311 42.5989 40.1919 42.7803C40.1612 42.7496 40.1303 42.7192 40.0991 42.689C40.28 42.4559 40.3783 42.1712 40.3791 41.8782C40.3789 41.5655 40.2686 41.2624 40.0667 41.0203C39.8649 40.7781 39.5839 40.6117 39.2713 40.5491C38.9588 40.4866 38.6338 40.5318 38.3513 40.6771C38.0687 40.8224 37.8461 41.0588 37.7209 41.3464C37.6799 41.335 37.6387 41.3255 37.5977 41.3152C37.6052 41.2579 37.6154 41.2012 37.6154 41.1418C37.6154 40.7818 37.4695 40.4366 37.2099 40.182C36.9502 39.9275 36.598 39.7845 36.2308 39.7845C35.8636 39.7845 35.5114 39.9275 35.2517 40.182C34.992 40.4366 34.8462 40.7818 34.8462 41.1418C34.8462 41.2012 34.8564 41.2579 34.8639 41.3152C34.8229 41.3255 34.7816 41.335 34.7407 41.3464C34.6159 41.0582 34.3934 40.8212 34.1107 40.6755C33.828 40.5298 33.5027 40.4844 33.1898 40.547C32.8769 40.6096 32.5957 40.7764 32.3939 41.019C32.192 41.2616 32.082 41.5652 32.0825 41.8782C32.0825 42.1836 32.1888 42.4621 32.3624 42.689C31.3331 43.675 30.6923 45.0488 30.6923 46.5708C30.6923 49.5693 33.1719 51.9999 36.2308 51.9999C38.817 51.9999 40.9828 50.2599 41.5923 47.9107C41.6507 47.9181 41.7086 47.9281 41.7692 47.9281C42.1365 47.9281 42.4887 47.7851 42.7483 47.5306C43.008 47.276 43.1539 46.9308 43.1539 46.5708C43.1539 46.2109 43.008 45.8656 42.7483 45.6111C42.4887 45.3566 42.1365 45.2136 41.7692 45.2136Z" fill="#44D860"/>
<path fill-rule="evenodd" clip-rule="evenodd" d="M25.1539 35.7127H36.2308V30.2836H25.1539V35.7127Z" fill="#3ECC5F"/>
<path fill-rule="evenodd" clip-rule="evenodd" d="M39 33.6769C39.1836 33.6769 39.3597 33.6054 39.4895 33.4782C39.6194 33.3509 39.6923 33.1783 39.6923 32.9983C39.6923 32.8183 39.6194 32.6457 39.4895 32.5184C39.3597 32.3912 39.1836 32.3197 39 32.3197C38.9698 32.3197 38.9407 32.3248 38.9117 32.3283C38.9061 32.308 38.9014 32.2876 38.8956 32.2673C39.043 32.2066 39.1644 32.0979 39.2393 31.9595C39.3142 31.8211 39.338 31.6615 39.3066 31.5079C39.2752 31.3543 39.1906 31.2161 39.0671 31.1166C38.9435 31.0172 38.7888 30.9627 38.6289 30.9624C38.4714 30.9624 38.3276 31.0159 38.2113 31.103C38.1961 31.0875 38.1806 31.0723 38.1648 31.0574C38.2518 30.9442 38.3049 30.8047 38.3049 30.6518C38.3049 30.4954 38.2497 30.3438 38.1488 30.2227C38.0478 30.1016 37.9073 30.0184 37.751 29.9871C37.5946 29.9559 37.4321 29.9785 37.2908 30.0512C37.1495 30.1239 37.0382 30.2422 36.9757 30.3861C36.7333 30.3189 36.4827 30.2844 36.2308 30.2837C34.7016 30.2837 33.4615 31.4993 33.4615 32.9983C33.4615 34.4973 34.7016 35.7128 36.2308 35.7128C36.4894 35.7128 36.7384 35.6754 36.9757 35.6105C37.0382 35.7544 37.1495 35.8727 37.2908 35.9454C37.4321 36.0181 37.5946 36.0407 37.751 36.0095C37.9073 35.9782 38.0478 35.895 38.1488 35.7739C38.2497 35.6527 38.3049 35.5011 38.3049 35.3447C38.3049 35.1919 38.2518 35.0524 38.1648 34.9392C38.1806 34.9243 38.1961 34.9091 38.2113 34.8936C38.3276 34.9807 38.4714 35.0342 38.6289 35.0342C38.7889 35.0342 38.944 34.9799 39.0677 34.8804C39.1915 34.781 39.2763 34.6426 39.3077 34.4889C39.3391 34.3351 39.3152 34.1754 39.2401 34.0369C39.165 33.8984 39.0433 33.7897 38.8956 33.7293C38.9014 33.7092 38.9061 33.6886 38.9117 33.6682C38.9407 33.6718 38.9698 33.6769 39 33.6769Z" fill="#44D860"/>
<path fill-rule="evenodd" clip-rule="evenodd" d="M41.7692 13.6571C41.7249 13.6571 41.6778 13.6517 41.6335 13.6436C41.589 13.6351 41.5454 13.6223 41.5034 13.6056C41.4618 13.5893 41.4231 13.5676 41.384 13.5431C41.348 13.5187 41.3123 13.4888 41.2788 13.459C41.2486 13.4264 41.2181 13.3938 41.1932 13.3558C41.1683 13.3178 41.1461 13.2798 41.1292 13.2391C41.0953 13.1562 41.0775 13.0678 41.0769 12.9785C41.0769 12.9351 41.0824 12.8889 41.0908 12.8455C41.0991 12.8021 41.1129 12.7613 41.1292 12.7179C41.1461 12.6772 41.1683 12.6392 41.1932 12.6012C41.2181 12.5659 41.2486 12.5306 41.2788 12.498C41.3123 12.4682 41.348 12.4383 41.384 12.4139C41.4231 12.3894 41.4618 12.3677 41.5034 12.3514C41.5446 12.3352 41.5892 12.3216 41.6335 12.3134C41.7221 12.2944 41.8135 12.2944 41.9049 12.3134C41.9489 12.3216 41.9935 12.3352 42.0351 12.3514C42.0763 12.3677 42.1154 12.3894 42.1541 12.4139C42.1901 12.4383 42.2259 12.4682 42.2594 12.498C42.2898 12.5306 42.3203 12.5659 42.3452 12.6012C42.3701 12.6392 42.3923 12.6772 42.4089 12.7179C42.4255 12.7613 42.4394 12.8021 42.4477 12.8455C42.4557 12.8889 42.4615 12.9351 42.4615 12.9785C42.4615 13.1577 42.3865 13.3341 42.2594 13.459C42.2259 13.4888 42.1901 13.5187 42.1541 13.5431C42.1154 13.5676 42.0763 13.5893 42.0351 13.6056C41.9506 13.6393 41.8604 13.6568 41.7692 13.6571ZM47.3077 13.3178C47.1249 13.3178 46.9477 13.2445 46.8172 13.1197C46.7865 13.0871 46.7579 13.0527 46.7317 13.0165C46.7068 12.9785 46.6846 12.9405 46.6677 12.8998C46.6337 12.8169 46.616 12.7285 46.6154 12.6392C46.6154 12.46 46.6901 12.2863 46.8172 12.1587C46.8508 12.1288 46.8865 12.099 46.9225 12.0746C46.9615 12.0501 47.0003 12.0284 47.0418 12.0121C47.0831 11.9958 47.1277 11.9823 47.172 11.9741C47.2606 11.9551 47.3548 11.9551 47.4434 11.9741C47.4874 11.9823 47.532 11.9958 47.5735 12.0121C47.6148 12.0284 47.6538 12.0501 47.6926 12.0746C47.7286 12.099 47.7643 12.1288 47.7978 12.1587C47.9249 12.2863 48 12.46 48 12.6392C48 12.6826 47.9942 12.7288 47.9861 12.7722C47.9778 12.8156 47.964 12.8591 47.9474 12.8998C47.928 12.9405 47.9086 12.9785 47.8837 13.0165C47.8588 13.0518 47.8283 13.0871 47.7978 13.1197C47.7643 13.1495 47.7286 13.1794 47.6926 13.2038C47.6538 13.2282 47.6148 13.25 47.5735 13.2662C47.4891 13.3 47.3988 13.3175 47.3077 13.3178Z" fill="black"/>
</svg>
