<svg width="60" height="60" viewBox="0 0 60 60" fill="none" xmlns="http://www.w3.org/2000/svg">
<rect width="60" height="60" rx="8" fill="#F4F4F4"/>
<path d="M21.75 57C26.58 57 30.5 53.0427 30.5 48.1667V39.3334H21.75C16.92 39.3334 13 43.2907 13 48.1667C13 53.0427 16.92 57 21.75 57Z" fill="#0ACF83"/>
<path d="M13 30.4999C13 25.6239 16.92 21.6666 21.75 21.6666H30.5V39.3334H21.75C16.92 39.3334 13 35.3759 13 30.4999Z" fill="#A259FF"/>
<path d="M13 12.8333C13 7.95733 16.92 4 21.75 4H30.5V21.6666H21.75C16.92 21.6666 13 17.7093 13 12.8333Z" fill="#F24E1E"/>
<path d="M30.5 4H39.25C44.08 4 48 7.95733 48 12.8333C48 17.7093 44.08 21.6667 39.25 21.6667L30.5 21.6666V4Z" fill="#FF7262"/>
<path d="M48 30.4999C48 35.3759 44.08 39.3332 39.25 39.3332C34.42 39.3332 30.5 35.3759 30.5 30.4999C30.5 25.6239 34.42 21.6667 39.25 21.6667C44.08 21.6667 48 25.6239 48 30.4999Z" fill="#1ABCFE"/>
</svg>
