<svg width="60" height="60" viewBox="0 0 60 60" fill="none" xmlns="http://www.w3.org/2000/svg">
<rect width="60" height="60" rx="8" fill="#F4F4F4"/>
<path d="M10.366 51.6184L6 3H54L49.634 51.5921L29.9603 57" fill="#E44D26"/>
<path d="M29.9999 52.8657V6.99066H49.6206L45.8764 48.4685" fill="#F16529"/>
<path d="M14.9172 12.9365H29.9999V18.8956H21.506L22.0617 24.9992H29.9999V30.9452H16.5578L14.9172 12.9365ZM16.8224 33.9379H22.8555L23.2789 38.7026L29.9999 40.4878V46.7094L17.6692 43.2967" fill="#EBEBEB"/>
<path d="M45.0295 12.9365H29.9733V18.8956H44.4738L45.0295 12.9365ZM43.9314 24.9992H29.9733V30.9583H37.3823L36.6811 38.7026L29.9733 40.4878V46.6832L42.2776 43.2967" fill="white"/>
</svg>
