<svg width="60" height="60" viewBox="0 0 60 60" fill="none" xmlns="http://www.w3.org/2000/svg">
<rect width="60" height="60" rx="8" fill="#F4F4F4"/>
<path d="M52 0H8C3.58172 0 0 3.58172 0 8V52C0 56.4183 3.58172 60 8 60H52C56.4183 60 60 56.4183 60 52V8C60 3.58172 56.4183 0 52 0Z" fill="#F7DF1E"/>
<path d="M40.3048 46.8752C41.5133 48.8486 43.0857 50.2991 45.8667 50.2991C48.2029 50.2991 49.6952 49.1314 49.6952 47.5181C49.6952 45.5848 48.1619 44.9 45.5905 43.7752L44.181 43.1705C40.1124 41.4372 37.4095 39.2657 37.4095 34.6752C37.4095 30.4467 40.6314 27.2276 45.6667 27.2276C49.2514 27.2276 51.8286 28.4752 53.6857 31.7419L49.2952 34.561C48.3286 32.8276 47.2857 32.1448 45.6667 32.1448C44.0152 32.1448 42.9686 33.1924 42.9686 34.561C42.9686 36.2524 44.0162 36.9372 46.4352 37.9848L47.8448 38.5886C52.6352 40.6429 55.34 42.7372 55.34 47.4457C55.34 52.5219 51.3524 55.3029 45.9971 55.3029C40.761 55.3029 37.3781 52.8076 35.7229 49.5372L40.3048 46.8752ZM20.3876 47.3638C21.2733 48.9352 22.079 50.2638 24.0162 50.2638C25.8686 50.2638 27.0371 49.5391 27.0371 46.721V27.5495H32.6752V46.7972C32.6752 52.6352 29.2524 55.2924 24.2562 55.2924C19.7419 55.2924 17.1276 52.9562 15.7981 50.1424L20.3876 47.3638Z" fill="black"/>
</svg>
