<svg width="60" height="60" viewBox="0 0 60 60" fill="none" xmlns="http://www.w3.org/2000/svg">
<rect width="60" height="60" rx="8" fill="#F4F4F4"/>
<path d="M30 56C44.3594 56 56 44.3594 56 30C56 15.6406 44.3594 4 30 4C15.6406 4 4 15.6406 4 30C4 44.3594 15.6406 56 30 56Z" fill="black"/>
<path d="M47.1912 49.5059L23.9744 19.6H19.6V40.3914H23.0995V24.0441L44.4442 51.6219C45.4073 50.9773 46.3249 50.27 47.1912 49.5059Z" fill="url(#paint0_linear_1902_479)"/>
<path d="M40.689 19.6H37.2224V40.4H40.689V19.6Z" fill="url(#paint1_linear_1902_479)"/>
<defs>
<linearGradient id="paint0_linear_1902_479" x1="35.4889" y1="37.6556" x2="45.7444" y2="50.3667" gradientUnits="userSpaceOnUse">
<stop stop-color="white"/>
<stop offset="1" stop-color="white" stop-opacity="0"/>
</linearGradient>
<linearGradient id="paint1_linear_1902_479" x1="38.9557" y1="19.6" x2="38.8977" y2="34.8751" gradientUnits="userSpaceOnUse">
<stop stop-color="white"/>
<stop offset="1" stop-color="white" stop-opacity="0"/>
</linearGradient>
</defs>
</svg>
