<svg width="60" height="60" viewBox="0 0 60 60" fill="none" xmlns="http://www.w3.org/2000/svg">
<rect width="60" height="60" rx="8" fill="#F4F4F4"/>
<path d="M30.5 34.7608C33.1246 34.7608 35.2523 32.6294 35.2523 30.0001C35.2523 27.3708 33.1246 25.2393 30.5 25.2393C27.8754 25.2393 25.7477 27.3708 25.7477 30.0001C25.7477 32.6294 27.8754 34.7608 30.5 34.7608Z" fill="#61DAFB"/>
<path d="M30.5 39.7538C44.5833 39.7538 56 35.3869 56 30C56 24.6132 44.5833 20.2463 30.5 20.2463C16.4167 20.2463 5 24.6132 5 30C5 35.3869 16.4167 39.7538 30.5 39.7538Z" stroke="#61DAFB" stroke-width="2"/>
<path d="M22.068 34.8769C29.1097 47.0951 38.5931 54.8165 43.25 52.1231C47.9068 49.4297 45.9735 37.3414 38.9319 25.1231C31.8903 12.9049 22.4068 5.18345 17.75 7.87688C13.0931 10.5703 15.0264 22.6586 22.068 34.8769Z" stroke="#61DAFB" stroke-width="2"/>
<path d="M22.068 25.1231C15.0264 37.3414 13.0931 49.4297 17.75 52.1231C22.4068 54.8165 31.8903 47.0951 38.9319 34.8769C45.9735 22.6586 47.9068 10.5703 43.25 7.87687C38.5931 5.18344 29.1097 12.9048 22.068 25.1231Z" stroke="#61DAFB" stroke-width="2"/>
</svg>
