<svg width="60" height="60" viewBox="0 0 60 60" fill="none" xmlns="http://www.w3.org/2000/svg">
<rect width="60" height="60" rx="8" fill="#F4F4F4"/>
<path d="M48.7761 33.4196C46.9619 33.4291 45.3853 33.866 44.0651 34.5119C43.5807 33.5526 43.0963 32.6977 43.0108 32.0708C42.9158 31.3393 42.8018 30.8929 42.9158 30.019C43.0298 29.1451 43.5427 27.9008 43.5332 27.8058C43.5237 27.7108 43.4192 27.2644 42.3744 27.2549C41.3296 27.2454 40.4273 27.4544 40.3228 27.7298C40.2184 28.0053 40.0189 28.6322 39.8859 29.2781C39.7055 30.228 37.7964 33.619 36.7041 35.3953C36.3527 34.7019 36.0487 34.094 35.9823 33.6096C35.8873 32.8781 35.7733 32.4317 35.8873 31.5578C36.0013 30.6839 36.5141 29.4396 36.5047 29.3446C36.4952 29.2496 36.3907 28.8032 35.3459 28.7937C34.3011 28.7842 33.3988 28.9932 33.2943 29.2686C33.1898 29.5441 33.0759 30.19 32.8574 30.8169C32.639 31.4438 30.103 37.1051 29.4381 38.5679C29.0962 39.3183 28.8018 39.9167 28.5928 40.3252C28.5928 40.3252 28.5833 40.3537 28.5548 40.4012C28.3744 40.7526 28.2699 40.9426 28.2699 40.9426C28.2699 40.9426 28.2699 40.9426 28.2699 40.9521C28.1274 41.2086 27.9754 41.446 27.8995 41.446C27.8425 41.446 27.738 40.7621 27.9185 39.8312C28.2984 37.865 29.2007 34.8064 29.1912 34.7019C29.1912 34.6449 29.3622 34.113 28.6023 33.8375C27.8615 33.5621 27.5955 34.018 27.529 34.018C27.4626 34.018 27.4151 34.1795 27.4151 34.1795C27.4151 34.1795 28.2414 30.7409 25.8384 30.7409C24.3377 30.7409 22.2671 32.3842 21.2414 33.866C20.5955 34.2175 19.2183 34.9679 17.7461 35.7753C17.1857 36.0887 16.6063 36.4022 16.065 36.6966C16.027 36.6587 15.989 36.6112 15.951 36.5732C13.0446 33.4671 7.66872 31.2729 7.89667 27.1029C7.98215 25.5831 8.50454 21.5936 18.221 16.7493C26.2183 12.8073 32.582 13.8996 33.6837 16.3218C35.2604 19.7794 30.274 26.2005 22.0107 27.1314C18.8574 27.4829 17.2047 26.267 16.7868 25.8111C16.3499 25.3361 16.2834 25.3076 16.1219 25.4026C15.856 25.5451 16.027 25.9725 16.1219 26.2195C16.3689 26.8654 17.3852 28.0053 19.1043 28.5657C20.624 29.0596 24.3187 29.3351 28.7923 27.6063C33.7977 25.6686 37.7109 20.2828 36.5616 15.7709C35.4124 11.1925 27.814 9.68218 20.624 12.2373C16.3499 13.7571 11.7149 16.1508 8.38107 19.2664C4.4204 22.9709 3.79353 26.191 4.04998 27.5398C4.97129 32.3272 11.5724 35.4428 14.2128 37.751C14.0799 37.827 13.9564 37.8935 13.8519 37.9505C12.5317 38.6059 7.49775 41.2371 6.24402 44.0202C4.81932 47.1738 6.47197 49.4345 7.56424 49.7384C10.955 50.6788 14.4408 48.988 16.3119 46.1954C18.183 43.4028 17.9551 39.7742 17.0907 38.112C17.0812 38.093 17.0717 38.074 17.0527 38.055C17.3947 37.8555 17.7461 37.6465 18.088 37.447C18.7624 37.0481 19.4272 36.6777 19.9971 36.3737C19.6742 37.2571 19.4367 38.3114 19.3228 39.8312C19.1803 41.617 19.9116 43.9347 20.8709 44.8466C21.2984 45.2455 21.8017 45.255 22.1247 45.255C23.2454 45.255 23.7488 44.3242 24.3092 43.2223C24.9931 41.8735 25.6104 40.3062 25.6104 40.3062C25.6104 40.3062 24.8411 44.5426 26.9307 44.5426C27.6905 44.5426 28.4598 43.5548 28.8018 43.0513C28.8018 43.0608 28.8018 43.0608 28.8018 43.0608C28.8018 43.0608 28.8208 43.0323 28.8588 42.9658C28.9347 42.8423 28.9822 42.7664 28.9822 42.7664C28.9822 42.7664 28.9822 42.7569 28.9822 42.7474C29.2862 42.2154 29.97 41.0091 30.9863 39.0048C32.297 36.4212 33.5603 33.1916 33.5603 33.1916C33.5603 33.1916 33.6742 33.98 34.0637 35.2908C34.2916 36.0602 34.7665 36.9056 35.1464 37.7225C34.8425 38.15 34.6525 38.3874 34.6525 38.3874C34.6525 38.3874 34.6525 38.3874 34.662 38.3969C34.4151 38.7199 34.1491 39.0713 33.8547 39.4133C32.8194 40.6481 31.5847 42.0634 31.4137 42.4719C31.2143 42.9563 31.2618 43.3078 31.6417 43.5927C31.9171 43.8017 32.411 43.8302 32.9144 43.8017C33.8452 43.7352 34.5006 43.5073 34.8235 43.3648C35.3269 43.1843 35.9158 42.9088 36.4667 42.5004C37.4829 41.75 38.1003 40.6766 38.0433 39.2613C38.0148 38.4824 37.7584 37.7035 37.445 36.9721C37.5399 36.8391 37.6254 36.7061 37.7204 36.5732C39.3256 34.227 40.5698 31.6528 40.5698 31.6528C40.5698 31.6528 40.6838 32.4412 41.0732 33.752C41.2631 34.4169 41.6526 35.1388 41.9945 35.8418C40.4843 37.0671 39.5535 38.4919 39.2211 39.4228C38.6227 41.1516 39.0881 41.9305 39.9714 42.1109C40.3703 42.1964 40.9402 42.0065 41.3581 41.826C41.89 41.655 42.5169 41.3605 43.1153 40.9236C44.1315 40.1732 45.1098 39.1283 45.0529 37.713C45.0244 37.0671 44.8534 36.4307 44.6159 35.8133C45.8982 35.2813 47.5508 34.9869 49.6594 35.2338C54.1804 35.7658 55.0732 38.5869 54.9023 39.7742C54.7313 40.9616 53.7815 41.6075 53.4681 41.807C53.1546 42.0065 53.0502 42.0729 53.0787 42.2154C53.1167 42.4244 53.2686 42.4149 53.5346 42.3769C53.905 42.3104 55.9091 41.4175 55.9946 39.2328C56.137 36.4402 53.4776 33.3911 48.7761 33.4196ZM13.8994 45.179C12.3987 46.8128 10.3092 47.4302 9.40685 46.9078C8.43806 46.3474 8.81798 43.9347 10.6606 42.2059C11.7814 41.1516 13.225 40.1732 14.1843 39.5748C14.4028 39.4418 14.7257 39.2518 15.1152 39.0143C15.1816 38.9763 15.2196 38.9574 15.2196 38.9574C15.2956 38.9099 15.3716 38.8624 15.4476 38.8149C16.1219 41.2845 15.4761 43.4598 13.8994 45.179ZM24.8221 37.751C24.2997 39.0238 23.2074 42.2819 22.5426 42.1014C21.9727 41.9495 21.6213 39.4798 22.4286 37.0386C22.837 35.8133 23.7013 34.3505 24.2047 33.7805C25.0216 32.8686 25.9239 32.5647 26.1423 32.9351C26.4178 33.4196 25.145 36.9531 24.8221 37.751ZM33.8357 42.0634C33.6173 42.1774 33.4083 42.2534 33.3133 42.1964C33.2468 42.1584 33.4083 42.0065 33.4083 42.0065C33.4083 42.0065 34.5386 40.7906 34.985 40.2397C35.2414 39.9167 35.5454 39.5368 35.8683 39.1093C35.8683 39.1473 35.8683 39.1948 35.8683 39.2328C35.8683 40.6861 34.4626 41.6645 33.8357 42.0634ZM40.7882 40.4772C40.6268 40.3632 40.6553 39.9832 41.1967 38.7959C41.4056 38.3304 41.8995 37.5515 42.7448 36.8011C42.8398 37.1051 42.9063 37.3996 42.8968 37.675C42.8873 39.5083 41.5766 40.1922 40.7882 40.4772Z" fill="#CD6799"/>
</svg>
