<svg width="60" height="60" viewBox="0 0 60 60" fill="none" xmlns="http://www.w3.org/2000/svg">
<rect width="60" height="60" rx="8" fill="#F4F4F4"/>
<path d="M30 14C22.7998 14 18.2999 17.5556 16.4997 24.6662C19.2 21.1106 22.3501 19.7777 25.9498 20.6663C28.004 21.1733 29.472 22.6456 31.0973 24.2746C33.7443 26.9283 36.8079 29.9997 43.5003 29.9997C50.6999 29.9997 55.2005 26.444 57 19.3328C54.3003 22.8884 51.1503 24.2219 47.5498 23.3334C45.4964 22.8264 44.0284 21.3541 42.4031 19.725C39.7561 17.0713 36.6918 14 30 14V14ZM16.4997 29.9997C9.30011 29.9997 4.79955 33.5553 3 40.6666C5.69966 37.1109 8.84972 35.7774 12.4502 36.6666C14.5036 37.1743 15.9716 38.6459 17.597 40.2743C20.2439 42.928 23.3082 46 30 46C37.2002 46 41.7001 42.4444 43.5003 35.3331C40.8 38.8887 37.6499 40.2223 34.0502 39.333C31.9961 38.8267 30.5281 37.3537 28.9027 35.7254C26.2557 33.0716 23.1921 29.9997 16.4997 29.9997V29.9997Z" fill="#06B6D4"/>
</svg>
