<svg width="60" height="60" viewBox="0 0 60 60" fill="none" xmlns="http://www.w3.org/2000/svg">
<rect width="60" height="60" rx="8" fill="#F4F4F4"/>
<path d="M54.8346 12.4005L31.347 54.3473C30.8621 55.2134 29.6162 55.2185 29.124 54.3567L5.17084 12.4044C4.63451 11.4653 5.43861 10.3277 6.50424 10.5181L30.017 14.7153C30.167 14.7421 30.3206 14.7418 30.4705 14.7146L53.4914 10.5239C54.5535 10.3306 55.3613 11.4595 54.8346 12.4005V12.4005Z" fill="url(#paint0_linear_1902_706)"/>
<path d="M41.2172 5.01231L23.8359 8.4139C23.6971 8.44107 23.5712 8.51357 23.478 8.62C23.3849 8.72642 23.3298 8.86074 23.3215 9.00183L22.2523 27.037C22.2465 27.1359 22.2638 27.2348 22.3028 27.3259C22.3419 27.417 22.4017 27.4977 22.4775 27.5617C22.5533 27.6256 22.6429 27.6711 22.7394 27.6944C22.8358 27.7177 22.9363 27.7182 23.033 27.696L27.8723 26.5806C28.325 26.4762 28.7342 26.8745 28.641 27.3292L27.2033 34.3608C27.1067 34.8341 27.5514 35.2386 28.0141 35.0982L31.0031 34.1913C31.4664 34.0509 31.9117 34.4566 31.8137 34.9302L29.5289 45.9752C29.386 46.6661 30.3061 47.0428 30.6897 46.4505L30.9461 46.0549L45.1094 17.8247C45.3467 17.3521 44.9376 16.8131 44.418 16.9134L39.4366 17.8735C38.9686 17.9636 38.5704 17.5282 38.7024 17.071L41.9536 5.81462C42.0858 5.35621 41.686 4.92063 41.2174 5.01231H41.2172Z" fill="url(#paint1_linear_1902_706)"/>
<defs>
<linearGradient id="paint0_linear_1902_706" x1="4.586" y1="13.9024" x2="29.8758" y2="48.2914" gradientUnits="userSpaceOnUse">
<stop stop-color="#41D1FF"/>
<stop offset="1" stop-color="#BD34FE"/>
</linearGradient>
<linearGradient id="paint1_linear_1902_706" x1="32.1962" y1="5.93591" x2="37.3945" y2="41.6399" gradientUnits="userSpaceOnUse">
<stop stop-color="#FFEA83"/>
<stop offset="0.083" stop-color="#FFDD35"/>
<stop offset="1" stop-color="#FFA800"/>
</linearGradient>
</defs>
</svg>
